<?xml version="1.0" encoding="utf-8"?>
<!-- Generator: Adobe Illustrator 23.0.0, SVG Export Plug-In . SVG Version: 6.00 Build 0)  -->
<svg version="1.1" id="Capa_1" xmlns="http://www.w3.org/2000/svg" xmlns:xlink="http://www.w3.org/1999/xlink" x="0px" y="0px"
	 viewBox="0 0 512 512" style="enable-background:new 0 0 512 512;" xml:space="preserve">
<g id="Grupo_655_30_" transform="translate(0 0)">
	<g id="Trazado_954_30_">
		<path d="M173.8,346c-23.5,0-45.6-9.1-62.1-25.6c-34.3-34.3-34.3-90,0-124.2l162.8-163c8-7.8,18.5-12.1,29.6-12.1
			c11.2,0,21.8,4.4,29.8,12.3c16.2,16.2,16.2,42.8,0,59L203.4,222.7c-19.6,19.6-19.6,51.6,0,71.2c9.5,9.5,22.1,14.7,35.6,14.7
			c3.3,0,6.5-0.3,9.7-1l-12.7,12.7C219.4,336.9,197.3,346,173.8,346z"/>
	</g>
	<g id="Trazado_955_30_">
		<path d="M319.1,490.9c-23.5,0-45.6-9.1-62.1-25.6s-25.6-38.7-25.6-62.1c0-23.5,9.1-45.6,25.6-62.1l97.7-97.7
			c7.9-7.9,18.4-12.2,29.6-12.2s21.7,4.4,29.6,12.2c16.3,16.3,16.3,42.8,0,59l-65.1,65.1c-19.6,19.6-19.6,51.6,0,71.2
			c9.5,9.5,22.1,14.7,35.6,14.7c3.3,0,6.5-0.3,9.7-1l-12.7,12.8C364.6,481.8,342.6,490.9,319.1,490.9z"/>
	</g>
</g>
</svg>
